<svg xmlns="http://www.w3.org/2000/svg" viewBox="0 0 12 12"><defs><style>.a{fill:#2ecc71;}.b{fill:#fff;}</style></defs><g transform="translate(-94 -413)"><circle class="a" cx="6" cy="6" r="6" transform="translate(94 413)"/><path class="b" d="M2.9,5.773a.385.385,0,0,1-.274-.113L.113,3.144a.387.387,0,0,1,0-.547l.547-.547a.387.387,0,0,1,.547,0L2.9,3.744,6.533.113a.387.387,0,0,1,.547,0l.547.547a.387.387,0,0,1,0,.547L3.177,5.66A.384.384,0,0,1,2.9,5.773Z" transform="translate(96.129 416.517)"/></g></svg>