<svg xmlns="http://www.w3.org/2000/svg" viewBox="0 0 12 10.667"><defs><style>.a{fill:#faba09;}.b{fill:#fff;}</style></defs><g transform="translate(-157 -421)"><path class="a" d="M11.865,9.167a1,1,0,0,1-.866,1.5H1a1,1,0,0,1-.866-1.5L5.134.5A1,1,0,0,1,6.866.5l5,8.667Z" transform="translate(157 421)"/><path class="b" d="M.958,5.625a.958.958,0,1,1,.958-.959A.96.96,0,0,1,.958,5.625Zm.506-2.292H.453A.249.249,0,0,1,.2,3.1L.049.263A.249.249,0,0,1,.3,0h1.32a.25.25,0,0,1,.25.263L1.714,3.1A.25.25,0,0,1,1.464,3.333Z" transform="translate(162.042 424.667)"/></g></svg>