<svg xmlns="http://www.w3.org/2000/svg" viewBox="0 0 16 16"><defs><style>.a{fill:#2ecc71}.b{fill:#fff}</style></defs><g transform="translate(-94 -413)"><circle class="a" cx="8" cy="8" r="8" transform="translate(94 413)"/><path class="b" d="M100.709 425.387a.513.513 0 0 1-.365-.151l-3.354-3.354a.513.513 0 0 1-.151-.365.513.513 0 0 1 .151-.365l.73-.73a.513.513 0 0 1 .365-.151.513.513 0 0 1 .365.151l2.26 2.26 4.84-4.841a.513.513 0 0 1 .365-.151.511.511 0 0 1 .365.151l.73.73a.513.513 0 0 1 .151.365.513.513 0 0 1-.151.365l-5.935 5.936a.513.513 0 0 1-.366.15z"/></g></svg>