<svg xmlns="http://www.w3.org/2000/svg" viewBox="0 0 16 16"><defs><style>.a{fill:#e82018}.b{fill:#fff}</style></defs><g transform="translate(-115 -413)"><circle class="a" cx="8" cy="8" r="8" transform="translate(115 413)"/><path class="b" d="M125.371 425.036a.386.386 0 0 1-.274-.114l-2.1-2.116-2.1 2.116a.384.384 0 0 1-.274.114.384.384 0 0 1-.274-.114l-1.274-1.277a.389.389 0 0 1 0-.548l2.116-2.1-2.116-2.1a.389.389 0 0 1 0-.548l1.278-1.277a.383.383 0 0 1 .274-.114.386.386 0 0 1 .274.114l2.1 2.119 2.1-2.117a.385.385 0 0 1 .274-.113.385.385 0 0 1 .274.113l1.278 1.278a.385.385 0 0 1 .113.274.385.385 0 0 1-.113.274l-2.12 2.1 2.116 2.1a.386.386 0 0 1 .114.275.384.384 0 0 1-.114.273l-1.277 1.274a.386.386 0 0 1-.275.114z"/></g></svg>