<svg xmlns="http://www.w3.org/2000/svg" viewBox="0 0 12 12"><defs><style>.a{fill:#e82018}.b{fill:#fff}</style></defs><g transform="translate(-115 -413)"><circle class="a" cx="6" cy="6" r="6" transform="translate(115 413)"/><path class="b" d="M122.778 422.027a.289.289 0 0 1-.205-.085L121 420.355l-1.575 1.587a.29.29 0 0 1-.411 0l-.956-.958a.292.292 0 0 1 0-.411l1.587-1.573-1.587-1.576a.292.292 0 0 1 0-.411l.958-.957a.29.29 0 0 1 .411 0l1.573 1.59 1.573-1.588a.291.291 0 0 1 .411 0l.958.959a.291.291 0 0 1 0 .411L122.355 419l1.587 1.57a.29.29 0 0 1 0 .411l-.958.956a.289.289 0 0 1-.206.09z"/></g></svg>