<svg xmlns="http://www.w3.org/2000/svg" viewBox="0 0 16 14.222"><defs><style>.a{fill:#faba09}.b{fill:#fff}</style></defs><path class="a" d="M15.82 12.223a1.334 1.334 0 0 1-1.155 2H1.335a1.334 1.334 0 0 1-1.155-2L6.845.666a1.334 1.334 0 0 1 2.31 0l6.665 11.557z"/><path class="b" d="M8 12.389a1.279 1.279 0 0 1-1.278-1.278A1.279 1.279 0 0 1 8 9.834a1.279 1.279 0 0 1 1.277 1.277A1.279 1.279 0 0 1 8 12.389zm.674-3.056H7.326a.333.333 0 0 1-.333-.315L6.787 5.24a.328.328 0 0 1 .09-.246.331.331 0 0 1 .243-.1h1.76a.33.33 0 0 1 .242.1.331.331 0 0 1 .091.247l-.206 3.778a.334.334 0 0 1-.333.314z"/></svg>