<svg xmlns="http://www.w3.org/2000/svg" viewBox="0 0 12 12"><defs><style>.a{fill:#0097e6}.b{fill:#fff}</style></defs><g transform="translate(-136 -413)"><circle class="a" cx="6" cy="6" r="6" transform="translate(136 413)"/><path class="b" d="M143.065 422.097h-2.129a.291.291 0 0 1-.291-.29v-.581a.291.291 0 0 1 .291-.29h.29v-1.549h-.29a.291.291 0 0 1-.291-.29v-.58a.291.291 0 0 1 .291-.29h1.548a.291.291 0 0 1 .291.29v2.419h.29a.291.291 0 0 1 .29.29v.581a.291.291 0 0 1-.29.29zm-1.064-4.4a1.016 1.016 0 1 1 1.015-1.019 1.017 1.017 0 0 1-1.016 1.016z"/></g></svg>