<svg xmlns="http://www.w3.org/2000/svg" viewBox="0 0 16 16"><defs><style>.a{fill:#0097e6}.b{fill:#fff}</style></defs><g transform="translate(-136 -413)"><circle class="a" cx="8" cy="8" r="8" transform="translate(136 413)"/><path class="b" d="M145.42 425.129h-2.839a.388.388 0 0 1-.388-.387v-.775a.388.388 0 0 1 .388-.387h.387v-2.065h-.387a.388.388 0 0 1-.388-.387v-.774a.388.388 0 0 1 .388-.387h2.064a.388.388 0 0 1 .388.387v3.226h.387a.387.387 0 0 1 .387.387v.775a.387.387 0 0 1-.387.387zm-1.42-5.871a1.356 1.356 0 0 1-1.355-1.354 1.356 1.356 0 0 1 1.355-1.355 1.356 1.356 0 0 1 1.354 1.354 1.356 1.356 0 0 1-1.354 1.355z"/></g></svg>