<svg xmlns="http://www.w3.org/2000/svg" viewBox="0 0 18 18"><defs><style>.a{fill:#f43;}.b{fill:#fff;}</style></defs><g transform="translate(-625 -775)"><path class="a" d="M3955.25-4880a2.255,2.255,0,0,1-2.25-2.25v-13.5a2.257,2.257,0,0,1,2.25-2.251h13.5a2.258,2.258,0,0,1,2.251,2.251v13.5a2.256,2.256,0,0,1-2.251,2.25Z" transform="translate(-3328 5673)"/><path class="b" d="M7.278,13.441l-7.763,8.55a.752.752,0,0,1-1.125,0l-4.163-4.5a.752.752,0,0,1,0-1.125l.675-.788a.752.752,0,0,1,1.125,0l2.812,3.038,6.638-7.088a.752.752,0,0,1,1.125,0l.675.787a.749.749,0,0,1,0,1.125Z" transform="translate(633.247 767.409)"/></g></svg>