<svg xmlns="http://www.w3.org/2000/svg" viewBox="0 0 30.999 40"><defs><style>.a{fill:#e9847d;}.a,.b,.c,.d,.e,.f,.g,.h{fill-rule:evenodd;}.b{fill:#ced0d6;}.c{fill:#dbaaaa;}.d{fill:#ed776e;}.e{fill:#d2c3c7;}.f{fill:#e09d9b;}.g{fill:#e4908c;}.h{fill:#d7b7b8;}</style></defs><g transform="translate(-9.001)"><path class="a" d="M20,30a2.006,2.006,0,0,1,2,2v6a2,2,0,0,1-4,0V32A2.006,2.006,0,0,1,20,30Z"/><path class="b" d="M20,0a2.006,2.006,0,0,1,2,2V8a2,2,0,0,1-4,0V2A2.006,2.006,0,0,1,20,0Z"/><path class="c" d="M32,18h6a2,2,0,0,1,0,4H32a2,2,0,0,1,0-4Z"/><path class="d" d="M15,28.66a2,2,0,0,1,.73,2.73l-3,5.2a2,2,0,1,1-3.46-2l3-5.2A2,2,0,0,1,15,28.66Z"/><path class="e" d="M30,2.68a1.988,1.988,0,0,1,.73,2.73l-3,5.2a2,2,0,1,1-3.46-2l3-5.2A2,2,0,0,1,30,2.68Z"/><path class="f" d="M31.39,24.27l5.2,3a2,2,0,0,1-2,3.46l-5.2-3a2,2,0,0,1,2-3.46Z"/><path class="g" d="M25,28.66a2,2,0,0,1,2.73.73l3,5.2a2,2,0,0,1-3.46,2l-3-5.2A1.988,1.988,0,0,1,25,28.66Z"/><path class="h" d="M29.39,12.27l5.2-3a2,2,0,1,1,2,3.46l-5.2,3a2,2,0,1,1-2-3.46Z"/></g></svg>