<?xml version="1.0" encoding="utf-8"?><svg width="670" height="44" viewBox="0 0 670 44" xmlns="http://www.w3.org/2000/svg" xmlns:xlink="http://www.w3.org/1999/xlink"><svg viewBox="-2 -2 22 22" width="22" height="22" id="cbsingle-hover-selected" xmlns="http://www.w3.org/2000/svg"><defs><style>.aa{fill:#ff5b4d}.ab{fill:#fff}</style></defs><path class="aa" d="M2.25 18A2.255 2.255 0 0 1 0 15.75V2.25A2.257 2.257 0 0 1 2.25-.001h13.5a2.258 2.258 0 0 1 2.251 2.251v13.5A2.256 2.256 0 0 1 15.75 18z"/><path class="ab" d="M15.525 5.85L7.762 14.4a.752.752 0 0 1-1.125 0L2.474 9.9a.752.752 0 0 1 0-1.125l.675-.788a.752.752 0 0 1 1.125 0l2.812 3.038 6.638-7.088a.752.752 0 0 1 1.125 0l.675.787a.749.749 0 0 1 0 1.125z"/></svg><svg viewBox="-2 -2 22 22" width="22" height="22" id="cbsingle-hover-unselected" x="22" xmlns="http://www.w3.org/2000/svg"><defs><style>.ba{fill:#bbc0c5}.bb{fill:#fff}</style></defs><path class="ba" d="M15.75 0H2.25A2.257 2.257 0 0 0 0 2.25v13.5A2.257 2.257 0 0 0 2.25 18h13.5A2.257 2.257 0 0 0 18 15.75V2.25A2.257 2.257 0 0 0 15.75 0z"/><path class="bb" d="M15.303 5.85L7.54 14.4a.752.752 0 0 1-1.125 0L2.252 9.9a.752.752 0 0 1 0-1.125l.675-.788a.752.752 0 0 1 1.125 0l2.812 3.038 6.638-7.088a.752.752 0 0 1 1.125 0l.675.787a.749.749 0 0 1 0 1.125z"/></svg><svg viewBox="-2 -2 22 22" width="22" height="22" id="checkbox-dis-selected" x="44" xmlns="http://www.w3.org/2000/svg"><defs><style>.ca{fill:#dcdfe1}.cb{fill:#fff}</style></defs><path class="ca" d="M2.25 18a2.257 2.257 0 0 1-2.251-2.25V2.25A2.257 2.257 0 0 1 2.25 0h13.5a2.257 2.257 0 0 1 2.251 2.25v13.5A2.257 2.257 0 0 1 15.75 18z"/><path class="cb" d="M15.525 5.85L7.762 14.4a.752.752 0 0 1-1.125 0L2.474 9.9a.752.752 0 0 1 0-1.125l.675-.788a.752.752 0 0 1 1.125 0l2.812 3.038 6.638-7.088a.752.752 0 0 1 1.125 0l.675.787a.749.749 0 0 1 0 1.125z"/></svg><svg viewBox="-2 -2 22 22" width="22" height="22" id="checkbox-dis-unselected" x="66" xmlns="http://www.w3.org/2000/svg"><defs><style>.da{fill:#dcdfe1}.db{fill:#fff}</style></defs><g transform="translate(-810 -775)"><path class="da" d="M825.75 775h-13.5a2.257 2.257 0 0 0-2.25 2.25v13.5a2.257 2.257 0 0 0 2.25 2.25h13.5a2.257 2.257 0 0 0 2.25-2.25v-13.5a2.257 2.257 0 0 0-2.25-2.25z"/><rect class="db" width="14" height="14" rx="1" transform="translate(812 777)"/></g></svg><svg viewBox="-2 -2 22 22" width="22" height="22" id="checkbox-ena-selected" x="88" xmlns="http://www.w3.org/2000/svg"><defs><style>.ea{fill:#f43}.eb{fill:#fff}</style></defs><path class="ea" d="M2.25 18A2.255 2.255 0 0 1 0 15.75V2.25A2.257 2.257 0 0 1 2.25-.001h13.5a2.258 2.258 0 0 1 2.251 2.251v13.5A2.256 2.256 0 0 1 15.75 18z"/><path class="eb" d="M15.525 5.85L7.762 14.4a.752.752 0 0 1-1.125 0L2.474 9.9a.752.752 0 0 1 0-1.125l.675-.788a.752.752 0 0 1 1.125 0l2.812 3.038 6.638-7.088a.752.752 0 0 1 1.125 0l.675.787a.749.749 0 0 1 0 1.125z"/></svg><svg viewBox="-2 -2 22 22" width="22" height="22" id="checkbox-ena-unselected" x="110" xmlns="http://www.w3.org/2000/svg"><defs><style>.fa{fill:#bbc0c5}.fb{fill:#fff}</style></defs><g transform="translate(-750 -775)"><path class="fa" d="M765.75 775h-13.5a2.257 2.257 0 0 0-2.25 2.25v13.5a2.257 2.257 0 0 0 2.25 2.25h13.5a2.257 2.257 0 0 0 2.25-2.25v-13.5a2.257 2.257 0 0 0-2.25-2.25z"/><rect class="fb" width="14" height="14" rx="1" transform="translate(752 777)"/></g></svg><svg viewBox="-2 -2 22 22" width="22" height="22" id="checkbox-pressed-selected" x="132" xmlns="http://www.w3.org/2000/svg"><defs><style>.ga{fill:#e61300}.gb{fill:#fff}</style></defs><path class="ga" d="M2.25 18a2.257 2.257 0 0 1-2.251-2.25V2.25A2.257 2.257 0 0 1 2.25 0h13.5a2.257 2.257 0 0 1 2.251 2.25v13.5A2.257 2.257 0 0 1 15.75 18z"/><path class="gb" d="M15.525 5.85L7.762 14.4a.752.752 0 0 1-1.125 0L2.474 9.9a.752.752 0 0 1 0-1.125l.675-.788a.752.752 0 0 1 1.125 0l2.812 3.038 6.638-7.088a.752.752 0 0 1 1.125 0l.675.787a.749.749 0 0 1 0 1.125z"/></svg><svg viewBox="-2 -2 22 22" width="22" height="22" id="checkbox-pressed-unselected" x="154" xmlns="http://www.w3.org/2000/svg"><defs><style>.ha{fill:#8f97a0}.hb{fill:#fff}</style></defs><path class="ha" d="M15.75 0H2.25A2.257 2.257 0 0 0 0 2.25v13.5A2.257 2.257 0 0 0 2.25 18h13.5A2.257 2.257 0 0 0 18 15.75V2.25A2.257 2.257 0 0 0 15.75 0z"/><path class="hb" d="M15.303 5.85L7.54 14.4a.752.752 0 0 1-1.125 0L2.252 9.9a.752.752 0 0 1 0-1.125l.675-.788a.752.752 0 0 1 1.125 0l2.812 3.038 6.638-7.088a.752.752 0 0 1 1.125 0l.675.787a.749.749 0 0 1 0 1.125z"/></svg><svg viewBox="-2 -2 32 19" width="32" height="19" id="move-handle" x="176" xmlns="http://www.w3.org/2000/svg"><path fill-rule="evenodd" clip-rule="evenodd" fill="#BABABC" d="M1.59 12.01h24.94c.81 0 1.47.65 1.47 1.45 0 .8-.66 1.51-1.47 1.51H1.59c-.81.01-1.59-.7-1.59-1.51 0-.8.78-1.45 1.59-1.45zm0-6.01h24.94c.81 0 1.47.65 1.47 1.46 0 .81-.66 1.52-1.47 1.52H1.59C.78 8.98 0 8.27 0 7.46S.78 6 1.59 6zm0-6h24.94C27.34 0 28 .65 28 1.46c0 .81-.66 1.52-1.47 1.52H1.59C.78 2.98 0 2.27 0 1.46S.78 0 1.59 0z"/></svg><svg viewBox="-2 -2 22 22" width="22" height="22" id="radio-dis-selected" x="208" xmlns="http://www.w3.org/2000/svg"><defs><style>.ja{fill:#dcdfe1}.jb{fill:#fff}</style></defs><g transform="translate(-646 -576)"><circle class="ja" cx="9" cy="9" r="9" transform="translate(646 576)"/><circle class="jb" cx="7" cy="7" r="7" transform="translate(648 578)"/><circle class="ja" cx="4" cy="4" r="4" transform="translate(651 581)"/></g></svg><svg viewBox="-2 -2 22 22" width="22" height="22" id="radio-dis-unselected" x="230" xmlns="http://www.w3.org/2000/svg"><defs><style>.ka{fill:#dcdfe1}.kb{fill:#fff}</style></defs><g transform="translate(-736 -576)"><circle class="ka" cx="9" cy="9" r="9" transform="translate(736 576)"/><circle class="kb" cx="7" cy="7" r="7" transform="translate(738 578)"/></g></svg><svg viewBox="-2 -2 22 22" width="22" height="22" id="radio-ena-selected" x="252" xmlns="http://www.w3.org/2000/svg"><defs><style>.la{fill:#f43}.lb{fill:#fff}</style></defs><g transform="translate(-586 -576)"><circle class="la" cx="9" cy="9" r="9" transform="translate(586 576)"/><circle class="lb" cx="7" cy="7" r="7" transform="translate(588 578)"/><circle class="la" cx="4" cy="4" r="4" transform="translate(591 581)"/></g></svg><svg viewBox="-2 -2 22 22" width="22" height="22" id="radio-ena-unselected" x="274" xmlns="http://www.w3.org/2000/svg"><defs><style>.ma{fill:#b0b6bc}.mb{fill:#fff}</style></defs><g transform="translate(-676 -576)"><circle class="ma" cx="9" cy="9" r="9" transform="translate(676 576)"/><circle class="mb" cx="7" cy="7" r="7" transform="translate(678 578)"/></g></svg><svg viewBox="-2 -2 22 22" width="22" height="22" id="radio-pressed-selected" x="296" xmlns="http://www.w3.org/2000/svg"><defs><style>.na{fill:#f43}.nb{fill:#fff}</style></defs><g transform="translate(-616 -576)"><circle class="na" cx="9" cy="9" r="9" transform="translate(616 576)"/><circle class="nb" cx="7" cy="7" r="7" transform="translate(618 578)"/><circle class="na" cx="4" cy="4" r="4" transform="translate(621 581)"/></g></svg><svg viewBox="-2 -2 22 22" width="22" height="22" id="radio-pressed-unselected" x="318" xmlns="http://www.w3.org/2000/svg"><defs><style>.oa{fill:#8f97a0}.ob{fill:#fff}</style></defs><g transform="translate(-706 -576)"><circle class="oa" cx="9" cy="9" r="9" transform="translate(706 576)"/><circle class="ob" cx="7" cy="7" r="7" transform="translate(708 578)"/><circle class="oa" cx="4" cy="4" r="4" transform="translate(711 581)"/></g></svg><svg viewBox="-2 -2 17 15.61" width="17" height="15.61" id="spinner-00" x="340" xmlns="http://www.w3.org/2000/svg"><defs><style>.pa,.pb{fill:#ced0d6;fill-rule:evenodd}.pb{fill:#d2c3c7}</style></defs><path class="pa" d="M2 0a2.006 2.006 0 0 1 2 2v6a2 2 0 0 1-4 0V2a2.006 2.006 0 0 1 2-2z"/><path class="pb" d="M12 2.68a1.988 1.988 0 0 1 .73 2.73l-3 5.2a2 2 0 1 1-3.46-2l3-5.2A2 2 0 0 1 12 2.68z"/></svg><svg viewBox="-2 -2 26 26" width="26" height="26" id="spinner-10" x="357" xmlns="http://www.w3.org/2000/svg"><defs><style>.qa{fill:#ced0d6}.qa,.qb,.qc,.qd{fill-rule:evenodd}.qb{fill:#dbaaaa}.qc{fill:#d2c3c7}.qd{fill:#d7b7b8}</style></defs><path class="qa" d="M2 0a2.006 2.006 0 0 1 2 2v6a2 2 0 0 1-4 0V2a2.006 2.006 0 0 1 2-2z"/><path class="qb" d="M14 18h6a2 2 0 0 1 0 4h-6a2 2 0 0 1 0-4z"/><path class="qc" d="M12 2.68a1.988 1.988 0 0 1 .73 2.73l-3 5.2a2 2 0 1 1-3.46-2l3-5.2A2 2 0 0 1 12 2.68z"/><path class="qd" d="M11.39 12.27l5.2-3a2 2 0 1 1 2 3.46l-5.2 3a2 2 0 1 1-2-3.46z"/></svg><svg viewBox="-2 -2 26 35" width="26" height="35" id="spinner-20" x="383" xmlns="http://www.w3.org/2000/svg"><defs><style>.ra{fill:#ced0d6}.ra,.rb,.rc,.rd,.re{fill-rule:evenodd}.rb{fill:#dbaaaa}.rc{fill:#d2c3c7}.rd{fill:#e09d9b}.re{fill:#d7b7b8}</style></defs><path class="ra" d="M2 0a2.006 2.006 0 0 1 2 2v6a2 2 0 0 1-4 0V2a2.006 2.006 0 0 1 2-2z"/><path class="rb" d="M14 18h6a2 2 0 0 1 0 4h-6a2 2 0 0 1 0-4z"/><path class="rc" d="M12 2.68a1.988 1.988 0 0 1 .73 2.73l-3 5.2a2 2 0 1 1-3.46-2l3-5.2A2 2 0 0 1 12 2.68z"/><path class="rd" d="M13.39 24.27l5.2 3a2 2 0 0 1-2 3.46l-5.2-3a2 2 0 0 1 2-3.46z"/><path class="re" d="M11.39 12.27l5.2-3a2 2 0 1 1 2 3.46l-5.2 3a2 2 0 1 1-2-3.46z"/></svg><svg viewBox="-2 -2 26 41.59" width="26" height="41.59" id="spinner-30" x="409" xmlns="http://www.w3.org/2000/svg"><defs><style>.sa{fill:#ced0d6}.sa,.sb,.sc,.sd,.se,.sf{fill-rule:evenodd}.sb{fill:#dbaaaa}.sc{fill:#d2c3c7}.sd{fill:#e09d9b}.se{fill:#e4908c}.sf{fill:#d7b7b8}</style></defs><path class="sa" d="M2 0a2.006 2.006 0 0 1 2 2v6a2 2 0 0 1-4 0V2a2.006 2.006 0 0 1 2-2z"/><path class="sb" d="M14 18h6a2 2 0 0 1 0 4h-6a2 2 0 0 1 0-4z"/><path class="sc" d="M12 2.68a1.988 1.988 0 0 1 .73 2.73l-3 5.2a2 2 0 1 1-3.46-2l3-5.2A2 2 0 0 1 12 2.68z"/><path class="sd" d="M13.39 24.27l5.2 3a2 2 0 0 1-2 3.46l-5.2-3a2 2 0 0 1 2-3.46z"/><path class="se" d="M7 28.66a2 2 0 0 1 2.73.73l3 5.2a2 2 0 0 1-3.46 2l-3-5.2A1.988 1.988 0 0 1 7 28.66z"/><path class="sf" d="M11.39 12.27l5.2-3a2 2 0 1 1 2 3.46l-5.2 3a2 2 0 1 1-2-3.46z"/></svg><svg viewBox="-2 -2 26 44" width="26" height="44" id="spinner-40" x="435" xmlns="http://www.w3.org/2000/svg"><defs><style>.ta{fill:#e9847d}.ta,.tb,.tc,.td,.te,.tf,.tg{fill-rule:evenodd}.tb{fill:#ced0d6}.tc{fill:#dbaaaa}.td{fill:#d2c3c7}.te{fill:#e09d9b}.tf{fill:#e4908c}.tg{fill:#d7b7b8}</style></defs><path class="ta" d="M2 30a2.006 2.006 0 0 1 2 2v6a2 2 0 0 1-4 0v-6a2.006 2.006 0 0 1 2-2z"/><path class="tb" d="M2 0a2.006 2.006 0 0 1 2 2v6a2 2 0 0 1-4 0V2a2.006 2.006 0 0 1 2-2z"/><path class="tc" d="M14 18h6a2 2 0 0 1 0 4h-6a2 2 0 0 1 0-4z"/><path class="td" d="M12 2.68a1.988 1.988 0 0 1 .73 2.73l-3 5.2a2 2 0 1 1-3.46-2l3-5.2A2 2 0 0 1 12 2.68z"/><path class="te" d="M13.39 24.27l5.2 3a2 2 0 0 1-2 3.46l-5.2-3a2 2 0 0 1 2-3.46z"/><path class="tf" d="M7 28.66a2 2 0 0 1 2.73.73l3 5.2a2 2 0 0 1-3.46 2l-3-5.2A1.988 1.988 0 0 1 7 28.66z"/><path class="tg" d="M11.39 12.27l5.2-3a2 2 0 1 1 2 3.46l-5.2 3a2 2 0 1 1-2-3.46z"/></svg><svg viewBox="-2 -2 35 44" width="35" height="44" id="spinner-50" x="461" xmlns="http://www.w3.org/2000/svg"><defs><style>.ua{fill:#e9847d}.ua,.ub,.uc,.ud,.ue,.uf,.ug,.uh{fill-rule:evenodd}.ub{fill:#ced0d6}.uc{fill:#dbaaaa}.ud{fill:#ed776e}.ue{fill:#d2c3c7}.uf{fill:#e09d9b}.ug{fill:#e4908c}.uh{fill:#d7b7b8}</style></defs><path class="ua" d="M10.999 30a2.006 2.006 0 0 1 2 2v6a2 2 0 0 1-4 0v-6a2.006 2.006 0 0 1 2-2z"/><path class="ub" d="M10.999 0a2.006 2.006 0 0 1 2 2v6a2 2 0 0 1-4 0V2a2.006 2.006 0 0 1 2-2z"/><path class="uc" d="M22.999 18h6a2 2 0 0 1 0 4h-6a2 2 0 0 1 0-4z"/><path class="ud" d="M5.999 28.66a2 2 0 0 1 .73 2.73l-3 5.2a2 2 0 1 1-3.46-2l3-5.2a2 2 0 0 1 2.73-.73z"/><path class="ue" d="M20.999 2.68a1.988 1.988 0 0 1 .73 2.73l-3 5.2a2 2 0 1 1-3.46-2l3-5.2a2 2 0 0 1 2.73-.73z"/><path class="uf" d="M22.389 24.27l5.2 3a2 2 0 0 1-2 3.46l-5.2-3a2 2 0 0 1 2-3.46z"/><path class="ug" d="M15.999 28.66a2 2 0 0 1 2.73.73l3 5.2a2 2 0 0 1-3.46 2l-3-5.2a1.988 1.988 0 0 1 .73-2.73z"/><path class="uh" d="M20.389 12.27l5.2-3a2 2 0 1 1 2 3.46l-5.2 3a2 2 0 1 1-2-3.46z"/></svg><svg viewBox="-2 -2 41.59 44" width="41.59" height="44" id="spinner-60" x="496" xmlns="http://www.w3.org/2000/svg"><defs><style>.va{fill:#e9847d}.va,.vb,.vc,.vd,.ve,.vf,.vg,.vh,.vi{fill-rule:evenodd}.vb{fill:#ced0d6}.vc{fill:#dbaaaa}.vd{fill:#ed776e}.ve{fill:#d2c3c7}.vf{fill:#e09d9b}.vg{fill:#e4908c}.vh{fill:#d7b7b8}.vi{fill:#f26a5f}</style></defs><path class="va" d="M17.589 30a2.006 2.006 0 0 1 2 2v6a2 2 0 0 1-4 0v-6a2.006 2.006 0 0 1 2-2z"/><path class="vb" d="M17.589 0a2.006 2.006 0 0 1 2 2v6a2 2 0 0 1-4 0V2a2.006 2.006 0 0 1 2-2z"/><path class="vc" d="M29.589 18h6a2 2 0 0 1 0 4h-6a2 2 0 0 1 0-4z"/><path class="vd" d="M12.589 28.66a2 2 0 0 1 .73 2.73l-3 5.2a2 2 0 1 1-3.46-2l3-5.2a2 2 0 0 1 2.73-.73z"/><path class="ve" d="M27.589 2.68a1.988 1.988 0 0 1 .73 2.73l-3 5.2a2 2 0 1 1-3.46-2l3-5.2a2 2 0 0 1 2.73-.73z"/><path class="vf" d="M28.979 24.27l5.2 3a2 2 0 0 1-2 3.46l-5.2-3a2 2 0 0 1 2-3.46z"/><path class="vg" d="M22.589 28.66a2 2 0 0 1 2.73.73l3 5.2a2 2 0 0 1-3.46 2l-3-5.2a1.988 1.988 0 0 1 .73-2.73z"/><path class="vh" d="M26.979 12.27l5.2-3a2 2 0 1 1 2 3.46l-5.2 3a2 2 0 1 1-2-3.46z"/><path class="vi" d="M.999 27.27l5.2-3a2 2 0 1 1 2 3.46l-5.2 3a2 2 0 1 1-2-3.46z"/></svg><svg viewBox="-2 -2 44 44" width="44" height="44" id="spinner-70" x="538" xmlns="http://www.w3.org/2000/svg"><defs><style>.wa{fill:#e9847d}.wa,.wb,.wc,.wd,.we,.wf,.wg,.wh,.wi,.wj{fill-rule:evenodd}.wb{fill:#ced0d6}.wc{fill:#dbaaaa}.wd{fill:#f65d51}.we{fill:#ed776e}.wf{fill:#d2c3c7}.wg{fill:#e09d9b}.wh{fill:#e4908c}.wi{fill:#d7b7b8}.wj{fill:#f26a5f}</style></defs><path class="wa" d="M20 30a2.006 2.006 0 0 1 2 2v6a2 2 0 0 1-4 0v-6a2.006 2.006 0 0 1 2-2z"/><path class="wb" d="M20 0a2.006 2.006 0 0 1 2 2v6a2 2 0 0 1-4 0V2a2.006 2.006 0 0 1 2-2z"/><path class="wc" d="M32 18h6a2 2 0 0 1 0 4h-6a2 2 0 0 1 0-4z"/><path class="wd" d="M2 18h6a2 2 0 0 1 0 4H2a2 2 0 0 1 0-4z"/><path class="we" d="M15 28.66a2 2 0 0 1 .73 2.73l-3 5.2a2 2 0 1 1-3.46-2l3-5.2a2 2 0 0 1 2.73-.73z"/><path class="wf" d="M30 2.68a1.988 1.988 0 0 1 .73 2.73l-3 5.2a2 2 0 1 1-3.46-2l3-5.2A2 2 0 0 1 30 2.68z"/><path class="wg" d="M31.39 24.27l5.2 3a2 2 0 0 1-2 3.46l-5.2-3a2 2 0 0 1 2-3.46z"/><path class="wh" d="M25 28.66a2 2 0 0 1 2.73.73l3 5.2a2 2 0 0 1-3.46 2l-3-5.2a1.988 1.988 0 0 1 .73-2.73z"/><path class="wi" d="M29.39 12.27l5.2-3a2 2 0 1 1 2 3.46l-5.2 3a2 2 0 1 1-2-3.46z"/><path class="wj" d="M3.41 27.27l5.2-3a2 2 0 1 1 2 3.46l-5.2 3a2 2 0 1 1-2-3.46z"/></svg><svg viewBox="-2 -2 44 44" width="44" height="44" id="spinner-80" x="582" xmlns="http://www.w3.org/2000/svg"><defs><style>.xa{fill:#e9847d}.xa,.xb,.xc,.xd,.xe,.xf,.xg,.xh,.xi,.xj,.xk{fill-rule:evenodd}.xb{fill:#ced0d6}.xc{fill:#dbaaaa}.xd{fill:#f65d51}.xe{fill:#ed776e}.xf{fill:#d2c3c7}.xg{fill:#e09d9b}.xh{fill:#fb5142}.xi{fill:#e4908c}.xj{fill:#d7b7b8}.xk{fill:#f26a5f}</style></defs><path class="xa" d="M20 30a2.006 2.006 0 0 1 2 2v6a2 2 0 0 1-4 0v-6a2.006 2.006 0 0 1 2-2z"/><path class="xb" d="M20 0a2.006 2.006 0 0 1 2 2v6a2 2 0 0 1-4 0V2a2.006 2.006 0 0 1 2-2z"/><path class="xc" d="M32 18h6a2 2 0 0 1 0 4h-6a2 2 0 0 1 0-4z"/><path class="xd" d="M2 18h6a2 2 0 0 1 0 4H2a2 2 0 0 1 0-4z"/><path class="xe" d="M15 28.66a2 2 0 0 1 .73 2.73l-3 5.2a2 2 0 1 1-3.46-2l3-5.2a2 2 0 0 1 2.73-.73z"/><path class="xf" d="M30 2.68a1.988 1.988 0 0 1 .73 2.73l-3 5.2a2 2 0 1 1-3.46-2l3-5.2A2 2 0 0 1 30 2.68z"/><path class="xg" d="M31.39 24.27l5.2 3a2 2 0 0 1-2 3.46l-5.2-3a2 2 0 0 1 2-3.46z"/><path class="xh" d="M5.41 9.27l5.2 3a2 2 0 0 1-2 3.46l-5.2-3a2 2 0 0 1 2-3.46z"/><path class="xi" d="M25 28.66a2 2 0 0 1 2.73.73l3 5.2a2 2 0 0 1-3.46 2l-3-5.2a1.988 1.988 0 0 1 .73-2.73z"/><path class="xj" d="M29.39 12.27l5.2-3a2 2 0 1 1 2 3.46l-5.2 3a2 2 0 1 1-2-3.46z"/><path class="xk" d="M3.41 27.27l5.2-3a2 2 0 1 1 2 3.46l-5.2 3a2 2 0 1 1-2-3.46z"/></svg><svg viewBox="-2 -2 44 44" width="44" height="44" id="spinner-90" x="626" xmlns="http://www.w3.org/2000/svg"><defs><style>.ya{fill:#e9847d}.ya,.yb,.yc,.yd,.ye,.yf,.yg,.yh,.yi,.yj,.yk,.yl{fill-rule:evenodd}.yb{fill:#ced0d6}.yc{fill:#dbaaaa}.yd{fill:#f65d51}.ye{fill:#ed776e}.yf{fill:#d2c3c7}.yg{fill:#e09d9b}.yh{fill:#fb5142}.yi{fill:#e4908c}.yj{fill:#f43}.yk{fill:#d7b7b8}.yl{fill:#f26a5f}</style></defs><path class="ya" d="M20 30a2.006 2.006 0 0 1 2 2v6a2 2 0 0 1-4 0v-6a2.006 2.006 0 0 1 2-2z"/><path class="yb" d="M20 0a2.006 2.006 0 0 1 2 2v6a2 2 0 0 1-4 0V2a2.006 2.006 0 0 1 2-2z"/><path class="yc" d="M32 18h6a2 2 0 0 1 0 4h-6a2 2 0 0 1 0-4z"/><path class="yd" d="M2 18h6a2 2 0 0 1 0 4H2a2 2 0 0 1 0-4z"/><path class="ye" d="M15 28.66a2 2 0 0 1 .73 2.73l-3 5.2a2 2 0 1 1-3.46-2l3-5.2a2 2 0 0 1 2.73-.73z"/><path class="yf" d="M30 2.68a1.988 1.988 0 0 1 .73 2.73l-3 5.2a2 2 0 1 1-3.46-2l3-5.2A2 2 0 0 1 30 2.68z"/><path class="yg" d="M31.39 24.27l5.2 3a2 2 0 0 1-2 3.46l-5.2-3a2 2 0 0 1 2-3.46z"/><path class="yh" d="M5.41 9.27l5.2 3a2 2 0 0 1-2 3.46l-5.2-3a2 2 0 0 1 2-3.46z"/><path class="yi" d="M25 28.66a2 2 0 0 1 2.73.73l3 5.2a2 2 0 0 1-3.46 2l-3-5.2a1.988 1.988 0 0 1 .73-2.73z"/><path class="yj" d="M10 2.68a2 2 0 0 1 2.73.73l3 5.2a2 2 0 1 1-3.46 2l-3-5.2A1.988 1.988 0 0 1 10 2.68z"/><path class="yk" d="M29.39 12.27l5.2-3a2 2 0 1 1 2 3.46l-5.2 3a2 2 0 1 1-2-3.46z"/><path class="yl" d="M3.41 27.27l5.2-3a2 2 0 1 1 2 3.46l-5.2 3a2 2 0 1 1-2-3.46z"/></svg></svg>