<svg xmlns="http://www.w3.org/2000/svg" viewBox="0 0 18 18"><defs><style>.a{fill:#8f97a0;}.b{fill:#fff;}</style></defs><g transform="translate(-780 -775)"><path class="a" d="M7.75,8H-5.75A2.257,2.257,0,0,0-8,10.25v13.5A2.257,2.257,0,0,0-5.75,26H7.75A2.257,2.257,0,0,0,10,23.75V10.25A2.257,2.257,0,0,0,7.75,8Z" transform="translate(788 767)"/><path class="b" d="M7.278,13.441l-7.763,8.55a.752.752,0,0,1-1.125,0l-4.163-4.5a.752.752,0,0,1,0-1.125l.675-.788a.752.752,0,0,1,1.125,0l2.812,3.038,6.638-7.088a.752.752,0,0,1,1.125,0l.675.787a.749.749,0,0,1,0,1.125Z" transform="translate(788.025 767.409)"/></g></svg>