<svg xmlns="http://www.w3.org/2000/svg" viewBox="0 0 18.001 18"><defs><style>.a{fill:#e61300;}.b{fill:#fff;}</style></defs><g transform="translate(-655 -775)"><path class="a" d="M4588.25-4113a2.257,2.257,0,0,1-2.251-2.25v-13.5a2.257,2.257,0,0,1,2.251-2.25h13.5a2.257,2.257,0,0,1,2.251,2.25v13.5a2.257,2.257,0,0,1-2.251,2.25Z" transform="translate(-3931 4906)"/><path class="b" d="M7.278,13.441l-7.763,8.55a.752.752,0,0,1-1.125,0l-4.163-4.5a.752.752,0,0,1,0-1.125l.675-.788a.752.752,0,0,1,1.125,0l2.812,3.038,6.638-7.088a.752.752,0,0,1,1.125,0l.675.787a.749.749,0,0,1,0,1.125Z" transform="translate(663.247 767.409)"/></g></svg>