<svg xmlns="http://www.w3.org/2000/svg" viewBox="0 0 22 30.999"><defs><style>.a{fill:#ced0d6;}.a,.b,.c,.d,.e{fill-rule:evenodd;}.b{fill:#dbaaaa;}.c{fill:#d2c3c7;}.d{fill:#e09d9b;}.e{fill:#d7b7b8;}</style></defs><g transform="translate(-18)"><path class="a" d="M20,0a2.006,2.006,0,0,1,2,2V8a2,2,0,0,1-4,0V2A2.006,2.006,0,0,1,20,0Z"/><path class="b" d="M32,18h6a2,2,0,0,1,0,4H32a2,2,0,0,1,0-4Z"/><path class="c" d="M30,2.68a1.988,1.988,0,0,1,.73,2.73l-3,5.2a2,2,0,1,1-3.46-2l3-5.2A2,2,0,0,1,30,2.68Z"/><path class="d" d="M31.39,24.27l5.2,3a2,2,0,0,1-2,3.46l-5.2-3a2,2,0,0,1,2-3.46Z"/><path class="e" d="M29.39,12.27l5.2-3a2,2,0,1,1,2,3.46l-5.2,3a2,2,0,1,1-2-3.46Z"/></g></svg>