<?xml version="1.0" encoding="utf-8"?><svg width="351" height="52" viewBox="0 0 351 52" xmlns="http://www.w3.org/2000/svg" xmlns:xlink="http://www.w3.org/1999/xlink"><svg viewBox="-2 -2 15 18.67" width="15" height="18.67" id="document" xmlns="http://www.w3.org/2000/svg"><defs><style>.aa{fill:#ff8f39}</style></defs><path class="aa" d="M6.417 3.9V0H.688A.686.686 0 0 0 0 .688v13.291a.686.686 0 0 0 .688.688h9.625a.686.686 0 0 0 .687-.688v-9.4H7.1a.69.69 0 0 1-.683-.679zM11 3.492v.175H7.333V0h.175A.687.687 0 0 1 8 .2l2.8 2.807a.685.685 0 0 1 .2.485z"/></svg><svg viewBox="-2 -2 20 16" width="20" height="16" id="folder-collapsed" x="15" xmlns="http://www.w3.org/2000/svg"><defs><style>.ba{fill:#39bbff}</style></defs><path class="ba" d="M14.5 2h-6l-2-2h-5A1.5 1.5 0 0 0 0 1.5v9A1.5 1.5 0 0 0 1.5 12h13a1.5 1.5 0 0 0 1.5-1.5v-7A1.5 1.5 0 0 0 14.5 2z"/></svg><svg viewBox="-2 -2 22 16" width="22" height="16" id="folder-open" x="35" xmlns="http://www.w3.org/2000/svg"><defs><style>.ca{fill:#39bbff}</style></defs><path class="ca" d="M17.9 7.128l-2.263 3.88a2 2 0 0 1-1.731.992H1.407a.75.75 0 0 1-.648-1.128l2.263-3.88A2 2 0 0 1 4.75 6h12.5a.75.75 0 0 1 .65 1.128zM4.75 5H15V3.5A1.5 1.5 0 0 0 13.5 2h-5l-2-2h-5A1.5 1.5 0 0 0 0 1.5v8.689l2.159-3.7A3.01 3.01 0 0 1 4.75 5z"/></svg><svg viewBox="-2 -2 36 36" width="36" height="36" id="group-avatar" x="57" xmlns="http://www.w3.org/2000/svg"><defs><circle id="da" cx="16" cy="16" r="16"/></defs><g fill="none" fill-rule="evenodd"><mask id="db" fill="#fff"><use xlink:href="#da"/></mask><use fill="#DADFE4" xlink:href="#da"/><path fill="#8D909B" d="M30 31h-5v-9.985L26 19h4c.571.111.988.606 1 1.188V30a1.048 1.048 0 0 1-1 1zm-6.5-13a3.5 3.5 0 1 1 0-7 3.5 3.5 0 0 1 0 7zm-11 1a5.5 5.5 0 1 1 0-11 5.5 5.5 0 0 1 0 11zm-.25 9.625L16 21h7c.542.024.976.458 1 1v15a1.048 1.048 0 0 1-1 1H2a1.048 1.048 0 0 1-1-1V22.063c.02-.555.447-1.01 1-1.063h6l4.25 7.625z" mask="url(#db)"/></g></svg><svg viewBox="-2 -2 26 19" width="26" height="19" id="move-handle" x="93" xmlns="http://www.w3.org/2000/svg"><defs><style>.ea{fill:#999}</style></defs><g transform="translate(-160 -722)"><rect class="ea" width="22" height="3" rx="1" transform="translate(160 722)"/><rect class="ea" width="22" height="3" rx="1" transform="translate(160 728)"/><rect class="ea" width="22" height="3" rx="1" transform="translate(160 734)"/></g></svg><svg viewBox="-2 -2 52 52" preserveAspectRatio="none" width="52" height="52" id="none" x="119" xmlns="http://www.w3.org/2000/svg"><path stroke="#ef3a42" stroke-width="3.5" vector-effect="non-scaling-stroke" d="M48 0L0 48"/></svg><svg viewBox="-2 -2 36 36" width="36" height="36" id="person-avatar" x="171" xmlns="http://www.w3.org/2000/svg"><defs><circle id="ga" cx="16" cy="16" r="16"/></defs><g fill="none" fill-rule="evenodd"><mask id="gb" fill="#fff"><use xlink:href="#ga"/></mask><use fill="#DADFE4" xlink:href="#ga"/><path fill="#8D909B" fill-rule="nonzero" d="M25.625 39H6.375C5.55 39 5 38.441 5 37.604V22.243c0-.838.55-1.396 1.375-1.396h5.5L16 29.103l4.125-8.256h5.5c.825 0 1.375.558 1.375 1.396v15.36c0 .838-.55 1.397-1.375 1.397zm-9.836-19.654c-3.184 0-5.789-2.553-5.789-5.673S12.605 8 15.79 8c3.184 0 5.789 2.553 5.789 5.673s-2.605 5.673-5.79 5.673z" mask="url(#gb)"/></g></svg><svg viewBox="-2 -2 20 20" width="20" height="20" id="status-confirmation" x="207" xmlns="http://www.w3.org/2000/svg"><defs><style>.ha{fill:#2ecc71}.hb{fill:#fff}</style></defs><g transform="translate(-94 -413)"><circle class="ha" cx="8" cy="8" r="8" transform="translate(94 413)"/><path class="hb" d="M100.709 425.387a.513.513 0 0 1-.365-.151l-3.354-3.354a.513.513 0 0 1-.151-.365.513.513 0 0 1 .151-.365l.73-.73a.513.513 0 0 1 .365-.151.513.513 0 0 1 .365.151l2.26 2.26 4.84-4.841a.513.513 0 0 1 .365-.151.511.511 0 0 1 .365.151l.73.73a.513.513 0 0 1 .151.365.513.513 0 0 1-.151.365l-5.935 5.936a.513.513 0 0 1-.366.15z"/></g></svg><svg viewBox="-2 -2 16 16" width="16" height="16" id="status-confirmation2" x="227" xmlns="http://www.w3.org/2000/svg"><defs><style>.ia{fill:#2ecc71}.ib{fill:#fff}</style></defs><g transform="translate(-94 -413)"><circle class="ia" cx="6" cy="6" r="6" transform="translate(94 413)"/><path class="ib" d="M99.029 422.29a.385.385 0 0 1-.274-.113l-2.513-2.516a.387.387 0 0 1 0-.547l.547-.547a.387.387 0 0 1 .547 0l1.693 1.694 3.633-3.631a.387.387 0 0 1 .547 0l.547.547a.387.387 0 0 1 0 .547l-4.45 4.453a.384.384 0 0 1-.277.113z"/></g></svg><svg viewBox="-2 -2 20 20" width="20" height="20" id="status-error" x="243" xmlns="http://www.w3.org/2000/svg"><defs><style>.ja{fill:#e82018}.jb{fill:#fff}</style></defs><g transform="translate(-115 -413)"><circle class="ja" cx="8" cy="8" r="8" transform="translate(115 413)"/><path class="jb" d="M125.371 425.036a.386.386 0 0 1-.274-.114l-2.1-2.116-2.1 2.116a.384.384 0 0 1-.274.114.384.384 0 0 1-.274-.114l-1.274-1.277a.389.389 0 0 1 0-.548l2.116-2.1-2.116-2.1a.389.389 0 0 1 0-.548l1.278-1.277a.383.383 0 0 1 .274-.114.386.386 0 0 1 .274.114l2.1 2.119 2.1-2.117a.385.385 0 0 1 .274-.113.385.385 0 0 1 .274.113l1.278 1.278a.385.385 0 0 1 .113.274.385.385 0 0 1-.113.274l-2.12 2.1 2.116 2.1a.386.386 0 0 1 .114.275.384.384 0 0 1-.114.273l-1.277 1.274a.386.386 0 0 1-.275.114z"/></g></svg><svg viewBox="-2 -2 16 16" width="16" height="16" id="status-error2" x="263" xmlns="http://www.w3.org/2000/svg"><defs><style>.ka{fill:#e82018}.kb{fill:#fff}</style></defs><g transform="translate(-115 -413)"><circle class="ka" cx="6" cy="6" r="6" transform="translate(115 413)"/><path class="kb" d="M122.778 422.027a.289.289 0 0 1-.205-.085L121 420.355l-1.575 1.587a.29.29 0 0 1-.411 0l-.956-.958a.292.292 0 0 1 0-.411l1.587-1.573-1.587-1.576a.292.292 0 0 1 0-.411l.958-.957a.29.29 0 0 1 .411 0l1.573 1.59 1.573-1.588a.291.291 0 0 1 .411 0l.958.959a.291.291 0 0 1 0 .411L122.355 419l1.587 1.57a.29.29 0 0 1 0 .411l-.958.956a.289.289 0 0 1-.206.09z"/></g></svg><svg viewBox="-2 -2 20 20" width="20" height="20" id="status-info" x="279" xmlns="http://www.w3.org/2000/svg"><defs><style>.la{fill:#0097e6}.lb{fill:#fff}</style></defs><g transform="translate(-136 -413)"><circle class="la" cx="8" cy="8" r="8" transform="translate(136 413)"/><path class="lb" d="M145.42 425.129h-2.839a.388.388 0 0 1-.388-.387v-.775a.388.388 0 0 1 .388-.387h.387v-2.065h-.387a.388.388 0 0 1-.388-.387v-.774a.388.388 0 0 1 .388-.387h2.064a.388.388 0 0 1 .388.387v3.226h.387a.387.387 0 0 1 .387.387v.775a.387.387 0 0 1-.387.387zm-1.42-5.871a1.356 1.356 0 0 1-1.355-1.354 1.356 1.356 0 0 1 1.355-1.355 1.356 1.356 0 0 1 1.354 1.354 1.356 1.356 0 0 1-1.354 1.355z"/></g></svg><svg viewBox="-2 -2 16 16" width="16" height="16" id="status-info2" x="299" xmlns="http://www.w3.org/2000/svg"><defs><style>.ma{fill:#0097e6}.mb{fill:#fff}</style></defs><g transform="translate(-136 -413)"><circle class="ma" cx="6" cy="6" r="6" transform="translate(136 413)"/><path class="mb" d="M143.065 422.097h-2.129a.291.291 0 0 1-.291-.29v-.581a.291.291 0 0 1 .291-.29h.29v-1.549h-.29a.291.291 0 0 1-.291-.29v-.58a.291.291 0 0 1 .291-.29h1.548a.291.291 0 0 1 .291.29v2.419h.29a.291.291 0 0 1 .29.29v.581a.291.291 0 0 1-.29.29zm-1.064-4.4a1.016 1.016 0 1 1 1.015-1.019 1.017 1.017 0 0 1-1.016 1.016z"/></g></svg><svg viewBox="-2 -2 20 18.22" width="20" height="18.22" id="status-warning" x="315" xmlns="http://www.w3.org/2000/svg"><defs><style>.na{fill:#faba09}.nb{fill:#fff}</style></defs><path class="na" d="M15.82 12.223a1.334 1.334 0 0 1-1.155 2H1.335a1.334 1.334 0 0 1-1.155-2L6.845.666a1.334 1.334 0 0 1 2.31 0l6.665 11.557z"/><path class="nb" d="M8 12.389a1.279 1.279 0 0 1-1.278-1.278A1.279 1.279 0 0 1 8 9.834a1.279 1.279 0 0 1 1.277 1.277A1.279 1.279 0 0 1 8 12.389zm.674-3.056H7.326a.333.333 0 0 1-.333-.315L6.787 5.24a.328.328 0 0 1 .09-.246.331.331 0 0 1 .243-.1h1.76a.33.33 0 0 1 .242.1.331.331 0 0 1 .091.247l-.206 3.778a.334.334 0 0 1-.333.314z"/></svg><svg viewBox="-2 -2 16 14.67" width="16" height="14.67" id="status-warning2" x="335" xmlns="http://www.w3.org/2000/svg"><defs><style>.oa{fill:#faba09}.ob{fill:#fff}</style></defs><path class="oa" d="M11.865 9.167a1 1 0 0 1-.866 1.5H1a1 1 0 0 1-.866-1.5l5-8.667a1 1 0 0 1 1.732 0l5 8.667z"/><path class="ob" d="M6 9.292a.958.958 0 1 1 .958-.959.96.96 0 0 1-.958.959zM6.506 7H5.495a.249.249 0 0 1-.253-.233L5.091 3.93a.249.249 0 0 1 .251-.263h1.32a.25.25 0 0 1 .25.263l-.156 2.837a.25.25 0 0 1-.25.233z"/></svg></svg>