<svg xmlns="http://www.w3.org/2000/svg" viewBox="0 0 12 12"><defs><style>.a{fill:#e82018;}.b{fill:#fff;}</style></defs><g transform="translate(-115 -413)"><circle class="a" cx="6" cy="6" r="6" transform="translate(115 413)"/><path class="b" d="M4.805,6.057A.289.289,0,0,1,4.6,5.972L3.027,4.385,1.452,5.972a.29.29,0,0,1-.411,0L.085,5.014a.292.292,0,0,1,0-.411L1.672,3.03.085,1.454a.292.292,0,0,1,0-.411L1.043.086a.29.29,0,0,1,.411,0l1.573,1.59L4.6.088a.291.291,0,0,1,.411,0l.958.959a.291.291,0,0,1,0,.411L4.382,3.03,5.969,4.6a.29.29,0,0,1,0,.411l-.958.956A.289.289,0,0,1,4.805,6.057Z" transform="translate(117.973 415.97)"/></g></svg>