<svg xmlns="http://www.w3.org/2000/svg" viewBox="0 0 12 12"><defs><style>.a{fill:#0097e6;}.b{fill:#fff;}</style></defs><g transform="translate(-136 -413)"><circle class="a" cx="6" cy="6" r="6" transform="translate(136 413)"/><path class="b" d="M2.42,6.435H.291A.291.291,0,0,1,0,6.145V5.564a.291.291,0,0,1,.291-.29h.29V3.725H.291A.291.291,0,0,1,0,3.435V2.855a.291.291,0,0,1,.291-.29H1.839a.291.291,0,0,1,.291.29V5.274h.29a.291.291,0,0,1,.29.29v.581A.291.291,0,0,1,2.42,6.435Zm-1.064-4.4A1.016,1.016,0,1,1,2.371,1.016,1.017,1.017,0,0,1,1.355,2.032Z" transform="translate(140.645 415.662)"/></g></svg>