<svg xmlns="http://www.w3.org/2000/svg" viewBox="0 0 16 14.222"><defs><style>.a{fill:#faba09;}.b{fill:#fff;}</style></defs><g transform="translate(-157 -421)"><path class="a" d="M15.82,12.223a1.334,1.334,0,0,1-1.155,2H1.335a1.334,1.334,0,0,1-1.155-2L6.845.666a1.334,1.334,0,0,1,2.31,0L15.82,12.223Z" transform="translate(157 421)"/><path class="b" d="M933-971.611a1.279,1.279,0,0,1-1.278-1.278A1.279,1.279,0,0,1,933-974.166a1.279,1.279,0,0,1,1.277,1.277A1.279,1.279,0,0,1,933-971.611Zm.674-3.056h-1.348a.333.333,0,0,1-.333-.315l-.206-3.778a.328.328,0,0,1,.09-.246.331.331,0,0,1,.243-.1h1.76a.33.33,0,0,1,.242.1.331.331,0,0,1,.091.247l-.206,3.778A.334.334,0,0,1,933.674-974.667Z" transform="translate(-768 1405)"/></g></svg>