<svg xmlns="http://www.w3.org/2000/svg" viewBox="0 0 30.999 40"><defs><style>.a{fill:#e9847d}.a,.b,.c,.d,.e,.f,.g,.h{fill-rule:evenodd}.b{fill:#ced0d6}.c{fill:#dbaaaa}.d{fill:#ed776e}.e{fill:#d2c3c7}.f{fill:#e09d9b}.g{fill:#e4908c}.h{fill:#d7b7b8}</style></defs><path class="a" d="M10.999 30a2.006 2.006 0 0 1 2 2v6a2 2 0 0 1-4 0v-6a2.006 2.006 0 0 1 2-2z"/><path class="b" d="M10.999 0a2.006 2.006 0 0 1 2 2v6a2 2 0 0 1-4 0V2a2.006 2.006 0 0 1 2-2z"/><path class="c" d="M22.999 18h6a2 2 0 0 1 0 4h-6a2 2 0 0 1 0-4z"/><path class="d" d="M5.999 28.66a2 2 0 0 1 .73 2.73l-3 5.2a2 2 0 1 1-3.46-2l3-5.2a2 2 0 0 1 2.73-.73z"/><path class="e" d="M20.999 2.68a1.988 1.988 0 0 1 .73 2.73l-3 5.2a2 2 0 1 1-3.46-2l3-5.2a2 2 0 0 1 2.73-.73z"/><path class="f" d="M22.389 24.27l5.2 3a2 2 0 0 1-2 3.46l-5.2-3a2 2 0 0 1 2-3.46z"/><path class="g" d="M15.999 28.66a2 2 0 0 1 2.73.73l3 5.2a2 2 0 0 1-3.46 2l-3-5.2a1.988 1.988 0 0 1 .73-2.73z"/><path class="h" d="M20.389 12.27l5.2-3a2 2 0 1 1 2 3.46l-5.2 3a2 2 0 1 1-2-3.46z"/></svg>